REM DIRINDEX 1\2,1\3,1\4,1\5
REM DIRNAME cjc093,folder01,folder02,folder03,folder04
TITLE ""
FILE "Round-13-310-311.mp3" MP3
  TRACK 01 AUDIO
    TITLE "0:"
    INDEX 01 00:00:00
  TRACK 02 AUDIO
    TITLE "2:cjc093_3428"
    INDEX 01 00:00:01
  TRACK 03 AUDIO
    TITLE "0:"
    INDEX 01 00:00:74
  TRACK 04 AUDIO
    TITLE "3:cjc093_3429"
    INDEX 01 00:01:36
  TRACK 05 AUDIO
    TITLE "0:"
    INDEX 01 00:03:10
  TRACK 06 AUDIO
    TITLE "4:cjc093_3430"
    INDEX 01 00:03:51
  TRACK 07 AUDIO
    TITLE "0:"
    INDEX 01 00:08:50
  TRACK 08 AUDIO
    TITLE "3:cjc093_3431"
    INDEX 01 00:09:61
  TRACK 09 AUDIO
    TITLE "0:"
    INDEX 01 00:11:31
  TRACK 10 AUDIO
    TITLE "4:cjc093_3432"
    INDEX 01 00:11:40
  TRACK 11 AUDIO
    TITLE "0:"
    INDEX 01 00:13:30
  TRACK 12 AUDIO
    TITLE "2:cjc093_3433"
    INDEX 01 00:14:39
  TRACK 13 AUDIO
    TITLE "0:"
    INDEX 01 00:15:48
  TRACK 14 AUDIO
    TITLE "3:cjc093_3434"
    INDEX 01 00:16:14
  TRACK 15 AUDIO
    TITLE "0:"
    INDEX 01 00:17:72
  TRACK 16 AUDIO
    TITLE "4:cjc093_3435"
    INDEX 01 00:18:42
  TRACK 17 AUDIO
    TITLE "0:"
    INDEX 01 00:21:66
  TRACK 18 AUDIO
    TITLE "2:cjc093_3436"
    INDEX 01 00:23:04
  TRACK 19 AUDIO
    TITLE "0:"
    INDEX 01 00:24:08
  TRACK 20 AUDIO
    TITLE "3:cjc093_3437"
    INDEX 01 00:24:49
  TRACK 21 AUDIO
    TITLE "0:"
    INDEX 01 00:26:28
  TRACK 22 AUDIO
    TITLE "4:cjc093_3438"
    INDEX 01 00:26:58
  TRACK 23 AUDIO
    TITLE "0:"
    INDEX 01 00:30:24
  TRACK 24 AUDIO
    TITLE "2:cjc093_3439"
    INDEX 01 00:31:37
  TRACK 25 AUDIO
    TITLE "0:"
    INDEX 01 00:32:39
  TRACK 26 AUDIO
    TITLE "3:cjc093_3440"
    INDEX 01 00:33:03
  TRACK 27 AUDIO
    TITLE "0:"
    INDEX 01 00:34:63
  TRACK 28 AUDIO
    TITLE "4:cjc093_3441"
    INDEX 01 00:35:47
  TRACK 29 AUDIO
    TITLE "0:"
    INDEX 01 00:38:39
  TRACK 30 AUDIO
    TITLE "2:cjc093_3442"
    INDEX 01 00:39:52
  TRACK 31 AUDIO
    TITLE "0:"
    INDEX 01 00:40:60
  TRACK 32 AUDIO
    TITLE "3:cjc093_3443"
    INDEX 01 00:41:10
  TRACK 33 AUDIO
    TITLE "0:"
    INDEX 01 00:44:09
  TRACK 34 AUDIO
    TITLE "4:cjc093_3444"
    INDEX 01 00:44:22
  TRACK 35 AUDIO
    TITLE "0:"
    INDEX 01 00:47:01
  TRACK 36 AUDIO
    TITLE "2:cjc093_3445"
    INDEX 01 00:48:12
  TRACK 37 AUDIO
    TITLE "0:"
    INDEX 01 00:49:21
  TRACK 38 AUDIO
    TITLE "3:cjc093_3446"
    INDEX 01 00:49:43
  TRACK 39 AUDIO
    TITLE "0:"
    INDEX 01 00:52:06
  TRACK 40 AUDIO
    TITLE "4:cjc093_3447"
    INDEX 01 00:52:16
  TRACK 41 AUDIO
    TITLE "0:"
    INDEX 01 00:56:47
  TRACK 42 AUDIO
    TITLE "2:cjc093_3448"
    INDEX 01 00:57:43
  TRACK 43 AUDIO
    TITLE "0:"
    INDEX 01 00:58:48
  TRACK 44 AUDIO
    TITLE "3:cjc093_3449"
    INDEX 01 00:59:08
  TRACK 45 AUDIO
    TITLE "0:"
    INDEX 01 01:02:01
  TRACK 46 AUDIO
    TITLE "4:cjc093_3450"
    INDEX 01 01:02:10
  TRACK 47 AUDIO
    TITLE "0:"
    INDEX 01 01:04:70
  TRACK 48 AUDIO
    TITLE "2:cjc093_3451"
    INDEX 01 01:06:06
  TRACK 49 AUDIO
    TITLE "0:"
    INDEX 01 01:07:17
  TRACK 50 AUDIO
    TITLE "3:cjc093_3452"
    INDEX 01 01:07:39
  TRACK 51 AUDIO
    TITLE "0:"
    INDEX 01 01:09:71
  TRACK 52 AUDIO
    TITLE "4:cjc093_3453"
    INDEX 01 01:10:10
  TRACK 53 AUDIO
    TITLE "0:"
    INDEX 01 01:15:03
  TRACK 54 AUDIO
    TITLE "3:cjc093_3454"
    INDEX 01 01:16:16
  TRACK 55 AUDIO
    TITLE "0:"
    INDEX 01 01:17:41
  TRACK 56 AUDIO
    TITLE "4:cjc093_3455"
    INDEX 01 01:18:06
  TRACK 57 AUDIO
    TITLE "0:"
    INDEX 01 01:21:14
  TRACK 58 AUDIO
    TITLE "2:cjc093_3456"
    INDEX 01 01:22:27
  TRACK 59 AUDIO
    TITLE "0:"
    INDEX 01 01:23:26
  TRACK 60 AUDIO
    TITLE "3:cjc093_3457"
    INDEX 01 01:23:52
  TRACK 61 AUDIO
    TITLE "0:"
    INDEX 01 01:24:67
  TRACK 62 AUDIO
    TITLE "4:cjc093_3458"
    INDEX 01 01:25:17
  TRACK 63 AUDIO
    TITLE "0:"
    INDEX 01 01:27:32
